<svg width="16" height="16" viewBox="0 0 16 16" fill="none" xmlns="http://www.w3.org/2000/svg">
<path d="M0.666504 13.641V2.48703C0.666504 2.12764 0.772885 1.77629 0.97224 1.47725C1.30986 0.970818 1.87825 0.666626 2.48691 0.666626H4.99387C5.4702 0.666626 5.92335 0.87225 6.23702 1.23073C6.55069 1.58921 7.00383 1.79483 7.48017 1.79483H13.648C14.0949 1.79483 14.5235 1.97238 14.8396 2.28842C15.1556 2.60446 15.3332 3.0331 15.3332 3.48005V13.8888C15.3332 14.2719 15.181 14.6393 14.9101 14.9102C14.6392 15.1811 14.2718 15.3333 13.8887 15.3333H2.35881C1.82615 15.3333 1.32457 15.0825 1.00497 14.6564C0.785266 14.3634 0.666504 14.0072 0.666504 13.641Z" fill="#D0C0AF"/>
<path d="M0.666504 13.7768V6.18011C0.666504 5.7963 0.820173 5.42847 1.09321 5.15873C1.36195 4.89322 1.72451 4.74433 2.10229 4.74433H6.55194C6.92986 4.74433 7.28482 4.56295 7.50625 4.25669C7.72767 3.95042 8.08263 3.76904 8.46056 3.76904H13.5378C14.0518 3.76904 14.5411 3.9893 14.8818 4.37405C15.1726 4.70238 15.3332 5.1258 15.3332 5.5644V13.8912C15.3332 14.1946 15.2375 14.4902 15.0598 14.736C14.7886 15.111 14.354 15.3331 13.8912 15.3331H2.22282C1.77175 15.3331 1.34287 15.1374 1.04727 14.7967C0.801703 14.5137 0.666504 14.1516 0.666504 13.7768Z" fill="#DED4CA"/>
<g clip-path="url(#clip0)">
<path d="M8.34286 11.1977L7.05755 10.4967C6.88974 10.6761 6.67186 10.8009 6.43221 10.8548C6.19256 10.9088 5.94222 10.8894 5.71374 10.7992C5.48526 10.709 5.28919 10.5521 5.15102 10.349C5.01285 10.1459 4.93896 9.90595 4.93896 9.66031C4.93896 9.41466 5.01285 9.1747 5.15102 8.9716C5.28919 8.7685 5.48526 8.61165 5.71374 8.52145C5.94222 8.43124 6.19256 8.41185 6.43221 8.46578C6.67186 8.51972 6.88974 8.64449 7.05755 8.82389L8.34317 8.12291C8.27018 7.83398 8.30507 7.52834 8.44131 7.26329C8.57755 6.99824 8.80578 6.79198 9.08322 6.68317C9.36065 6.57436 9.66825 6.57046 9.94835 6.67222C10.2285 6.77398 10.4618 6.9744 10.6047 7.23591C10.7476 7.49743 10.7902 7.80209 10.7246 8.09278C10.6589 8.38347 10.4895 8.64024 10.2481 8.81495C10.0067 8.98966 9.70982 9.07033 9.41317 9.04183C9.11653 9.01332 8.84046 8.87761 8.63672 8.66012L7.3511 9.36109C7.40044 9.55741 7.40044 9.76289 7.3511 9.95921L8.63641 10.6602C8.84015 10.4427 9.11622 10.307 9.41286 10.2785C9.70951 10.25 10.0064 10.3306 10.2478 10.5054C10.4892 10.6801 10.6586 10.9368 10.7243 11.2275C10.7899 11.5182 10.7473 11.8229 10.6044 12.0844C10.4615 12.3459 10.2281 12.5463 9.94804 12.6481C9.66794 12.7498 9.36035 12.746 9.08291 12.6371C8.80547 12.5283 8.57725 12.3221 8.44101 12.057C8.30477 11.792 8.26987 11.4863 8.34286 11.1974V11.1977ZM6.16343 10.2724C6.32579 10.2724 6.48151 10.2079 6.59632 10.093C6.71113 9.97823 6.77563 9.82252 6.77563 9.66015C6.77563 9.49779 6.71113 9.34207 6.59632 9.22726C6.48151 9.11245 6.32579 9.04795 6.16343 9.04795C6.00106 9.04795 5.84535 9.11245 5.73054 9.22726C5.61573 9.34207 5.55123 9.49779 5.55123 9.66015C5.55123 9.82252 5.61573 9.97823 5.73054 10.093C5.84535 10.2079 6.00106 10.2724 6.16343 10.2724V10.2724ZM9.53053 8.43575C9.69289 8.43575 9.84861 8.37125 9.96342 8.25644C10.0782 8.14163 10.1427 7.98591 10.1427 7.82355C10.1427 7.66118 10.0782 7.50547 9.96342 7.39066C9.84861 7.27585 9.69289 7.21135 9.53053 7.21135C9.36816 7.21135 9.21245 7.27585 9.09764 7.39066C8.98283 7.50547 8.91833 7.66118 8.91833 7.82355C8.91833 7.98591 8.98283 8.14163 9.09764 8.25644C9.21245 8.37125 9.36816 8.43575 9.53053 8.43575V8.43575ZM9.53053 12.109C9.69289 12.109 9.84861 12.0445 9.96342 11.9297C10.0782 11.8148 10.1427 11.6591 10.1427 11.4968C10.1427 11.3344 10.0782 11.1787 9.96342 11.0639C9.84861 10.9491 9.69289 10.8846 9.53053 10.8846C9.36816 10.8846 9.21245 10.9491 9.09764 11.0639C8.98283 11.1787 8.91833 11.3344 8.91833 11.4968C8.91833 11.6591 8.98283 11.8148 9.09764 11.9297C9.21245 12.0445 9.36816 12.109 9.53053 12.109V12.109Z" fill="#B9A593" fill-opacity="0.7"/>
</g>
<defs>
<clipPath id="clip0">
<rect x="4.32666" y="5.98694" width="7.34641" height="7.34641" fill="white"/>
</clipPath>
</defs>
</svg>
