<svg width="16" height="16" viewBox="0 0 16 16" fill="none" xmlns="http://www.w3.org/2000/svg">
<path d="M0.666992 13.641V2.48703C0.666992 2.12764 0.773373 1.77629 0.972729 1.47725C1.31035 0.970818 1.87874 0.666626 2.4874 0.666626H4.99435C5.47069 0.666626 5.92384 0.87225 6.23751 1.23073C6.55117 1.58921 7.00432 1.79483 7.48066 1.79483H13.6484C14.0954 1.79483 14.524 1.97238 14.8401 2.28842C15.1561 2.60446 15.3337 3.0331 15.3337 3.48005V13.8888C15.3337 14.2719 15.1815 14.6393 14.9106 14.9102C14.6397 15.1811 14.2723 15.3333 13.8892 15.3333H2.3593C1.82663 15.3333 1.32505 15.0825 1.00545 14.6564C0.785755 14.3634 0.666992 14.0072 0.666992 13.641Z" fill="#D0C0AF"/>
<path d="M0.666504 13.7768V6.18011C0.666504 5.7963 0.820173 5.42847 1.09321 5.15873C1.36195 4.89322 1.72451 4.74433 2.10229 4.74433H6.55194C6.92986 4.74433 7.28482 4.56295 7.50625 4.25669C7.72767 3.95042 8.08263 3.76904 8.46056 3.76904H13.5378C14.0518 3.76904 14.5411 3.9893 14.8818 4.37405C15.1726 4.70238 15.3332 5.1258 15.3332 5.5644V13.8912C15.3332 14.1946 15.2375 14.4902 15.0598 14.736C14.7886 15.111 14.354 15.3331 13.8912 15.3331H2.22282C1.77175 15.3331 1.34287 15.1374 1.04727 14.7967C0.801703 14.5137 0.666504 14.1516 0.666504 13.7768Z" fill="#DED4CA"/>
<g clip-path="url(#clip0)">
<path d="M9.52519 8.80315L11.1152 7.68588C11.1381 7.6698 11.1649 7.66032 11.1928 7.65849C11.2206 7.65665 11.2485 7.66253 11.2732 7.67547C11.298 7.68842 11.3187 7.70794 11.3332 7.7319C11.3477 7.75587 11.3553 7.78336 11.3553 7.81138V11.5091C11.3553 11.5371 11.3477 11.5646 11.3332 11.5886C11.3187 11.6125 11.298 11.632 11.2732 11.645C11.2485 11.6579 11.2206 11.6638 11.1928 11.662C11.1649 11.6601 11.1381 11.6507 11.1152 11.6346L9.52519 10.5173V11.8029C9.52519 11.8841 9.49306 11.962 9.43586 12.0194C9.37866 12.0768 9.30108 12.109 9.22018 12.109H4.95003C4.86914 12.109 4.79156 12.0768 4.73436 12.0194C4.67715 11.962 4.64502 11.8841 4.64502 11.8029V7.51753C4.64502 7.43634 4.67715 7.35849 4.73436 7.30108C4.79156 7.24368 4.86914 7.21143 4.95003 7.21143H9.22018C9.30108 7.21143 9.37866 7.24368 9.43586 7.30108C9.49306 7.35849 9.52519 7.43634 9.52519 7.51753V8.80315ZM9.52519 9.77012L10.7452 10.6272V8.69295L9.52519 9.55003V9.76981V9.77012ZM5.25504 7.82363V11.4968H8.91517V7.82363H5.25504ZM5.86506 8.43583H6.47508V9.04803H5.86506V8.43583Z" fill="#B9A593" fill-opacity="0.7"/>
</g>
<defs>
<clipPath id="clip0">
<rect x="4.33984" y="5.98694" width="7.32026" height="7.34641" fill="white"/>
</clipPath>
</defs>
</svg>
