<svg width="16" height="16" viewBox="0 0 16 16" fill="none" xmlns="http://www.w3.org/2000/svg">
<path d="M0.666504 13.641V2.48703C0.666504 2.12764 0.772885 1.77629 0.97224 1.47725C1.30986 0.970818 1.87825 0.666626 2.48691 0.666626H4.99387C5.4702 0.666626 5.92335 0.87225 6.23702 1.23073C6.55069 1.58921 7.00383 1.79483 7.48017 1.79483H13.648C14.0949 1.79483 14.5235 1.97238 14.8396 2.28842C15.1556 2.60446 15.3332 3.0331 15.3332 3.48005V13.8888C15.3332 14.2719 15.181 14.6393 14.9101 14.9102C14.6392 15.1811 14.2718 15.3333 13.8887 15.3333H2.35881C1.82615 15.3333 1.32457 15.0825 1.00497 14.6564C0.785266 14.3634 0.666504 14.0072 0.666504 13.641Z" fill="#D0C0AF"/>
<path d="M0.666504 13.7768V6.18011C0.666504 5.7963 0.820173 5.42847 1.09321 5.15873C1.36195 4.89322 1.72451 4.74433 2.10229 4.74433H6.55194C6.92986 4.74433 7.28482 4.56295 7.50625 4.25669C7.72767 3.95042 8.08263 3.76904 8.46056 3.76904H13.5378C14.0518 3.76904 14.5411 3.9893 14.8818 4.37405C15.1726 4.70238 15.3332 5.1258 15.3332 5.5644V13.8912C15.3332 14.1946 15.2375 14.4902 15.0598 14.736C14.7886 15.111 14.354 15.3331 13.8912 15.3331H2.22282C1.77175 15.3331 1.34287 15.1374 1.04727 14.7967C0.801703 14.5137 0.666504 14.1516 0.666504 13.7768Z" fill="#DED4CA"/>
<g clip-path="url(#clip0)">
<path d="M7.77715 9.72629L8.73292 8.12782C8.81284 7.99416 9.00811 7.99908 9.08119 8.1366L11.1988 12.1212C11.2695 12.2544 11.173 12.4151 11.0221 12.4151H5.28399C5.13278 12.4151 5.03626 12.2538 5.10775 12.1205L6.90854 8.76425C6.98397 8.62366 7.18558 8.62366 7.26101 8.76425L7.77715 9.72629ZM8.11876 10.3452L8.91087 11.8029H10.3383L8.88342 9.06573L8.11876 10.3452ZM5.97088 11.8029H8.19868L7.08478 9.72721L5.97088 11.8029ZM6.01724 8.43577C5.81501 8.43577 5.62106 8.35515 5.47806 8.21164C5.33505 8.06813 5.25472 7.87348 5.25472 7.67052C5.25472 7.46757 5.33505 7.27292 5.47806 7.12941C5.62106 6.9859 5.81501 6.90527 6.01724 6.90527C6.21948 6.90527 6.41343 6.9859 6.55643 7.12941C6.69943 7.27292 6.77977 7.46757 6.77977 7.67052C6.77977 7.87348 6.69943 8.06813 6.55643 8.21164C6.41343 8.35515 6.21948 8.43577 6.01724 8.43577Z" fill="#B9A593" fill-opacity="0.7"/>
</g>
<defs>
<clipPath id="clip0">
<rect x="4.33984" y="5.98694" width="7.32026" height="7.34641" fill="white"/>
</clipPath>
</defs>
</svg>
