<svg width="16" height="16" viewBox="0 0 16 16" fill="none" xmlns="http://www.w3.org/2000/svg">
<path d="M0.666992 13.641V2.48703C0.666992 2.12764 0.773373 1.77629 0.972729 1.47725C1.31035 0.970818 1.87874 0.666626 2.4874 0.666626H4.99435C5.47069 0.666626 5.92384 0.87225 6.23751 1.23073C6.55117 1.58921 7.00432 1.79483 7.48066 1.79483H13.6484C14.0954 1.79483 14.524 1.97238 14.8401 2.28842C15.1561 2.60446 15.3337 3.0331 15.3337 3.48005V13.8888C15.3337 14.2719 15.1815 14.6393 14.9106 14.9102C14.6397 15.1811 14.2723 15.3333 13.8892 15.3333H2.3593C1.82663 15.3333 1.32505 15.0825 1.00545 14.6564C0.785755 14.3634 0.666992 14.0072 0.666992 13.641Z" fill="#D0C0AF"/>
<path d="M0.666504 13.7768V6.18011C0.666504 5.7963 0.820173 5.42847 1.09321 5.15873C1.36195 4.89322 1.72451 4.74433 2.10229 4.74433H6.55194C6.92986 4.74433 7.28482 4.56295 7.50625 4.25669C7.72767 3.95042 8.08263 3.76904 8.46056 3.76904H13.5378C14.0518 3.76904 14.5411 3.9893 14.8818 4.37405C15.1726 4.70238 15.3332 5.1258 15.3332 5.5644V13.8912C15.3332 14.1946 15.2375 14.4902 15.0598 14.736C14.7886 15.111 14.354 15.3331 13.8912 15.3331H2.22282C1.77175 15.3331 1.34287 15.1374 1.04727 14.7967C0.801703 14.5137 0.666504 14.1516 0.666504 13.7768Z" fill="#DED4CA"/>
<g clip-path="url(#clip0)">
<path d="M10.2554 6.90527C10.5315 6.90527 10.7554 7.12913 10.7554 7.40527V11.1907C10.7553 11.4602 10.6663 11.7222 10.5022 11.936C10.3381 12.1498 10.108 12.3034 9.84766 12.3731C9.58731 12.4428 9.31123 12.4247 9.06224 12.3215C8.81325 12.2184 8.60526 12.0359 8.47053 11.8025C8.33579 11.5691 8.28184 11.2977 8.31705 11.0305C8.35225 10.7633 8.47463 10.5151 8.66522 10.3246C8.85582 10.134 9.10396 10.0116 9.37118 9.97647C9.63839 9.9413 9.90975 9.99528 10.1432 10.13V7.51747H7.38826V11.1907C7.3882 11.4602 7.29921 11.7222 7.13509 11.936C6.97098 12.1498 6.7409 12.3034 6.48055 12.3731C6.22021 12.4428 5.94413 12.4247 5.69514 12.3215C5.44615 12.2184 5.23816 12.0359 5.10342 11.8025C4.96869 11.5691 4.91474 11.2977 4.94994 11.0305C4.98515 10.7633 5.10753 10.5151 5.29812 10.3246C5.48871 10.134 5.73686 10.0116 6.00407 9.97647C6.27129 9.9413 6.54264 9.99528 6.77606 10.13V7.40527C6.77606 7.12913 6.99991 6.90527 7.27606 6.90527H10.2554ZM6.16386 11.8029C6.32622 11.8029 6.48194 11.7384 6.59675 11.6236C6.71156 11.5088 6.77606 11.353 6.77606 11.1907C6.77606 11.0283 6.71156 10.8726 6.59675 10.7578C6.48194 10.643 6.32622 10.5785 6.16386 10.5785C6.00149 10.5785 5.84577 10.643 5.73096 10.7578C5.61615 10.8726 5.55166 11.0283 5.55166 11.1907C5.55166 11.353 5.61615 11.5088 5.73096 11.6236C5.84577 11.7384 6.00149 11.8029 6.16386 11.8029ZM9.53096 11.8029C9.69332 11.8029 9.84904 11.7384 9.96385 11.6236C10.0787 11.5088 10.1432 11.353 10.1432 11.1907C10.1432 11.0283 10.0787 10.8726 9.96385 10.7578C9.84904 10.643 9.69332 10.5785 9.53096 10.5785C9.36859 10.5785 9.21288 10.643 9.09807 10.7578C8.98326 10.8726 8.91876 11.0283 8.91876 11.1907C8.91876 11.353 8.98326 11.5088 9.09807 11.6236C9.21288 11.7384 9.36859 11.8029 9.53096 11.8029Z" fill="#B9A593" fill-opacity="0.7"/>
</g>
<defs>
<clipPath id="clip0">
<rect x="4.32715" y="5.98694" width="7.34641" height="7.34641" fill="white"/>
</clipPath>
</defs>
</svg>
