<svg width="16" height="16" viewBox="0 0 16 16" fill="none" xmlns="http://www.w3.org/2000/svg">
<path d="M0.666504 13.641V2.48703C0.666504 2.12764 0.772885 1.77629 0.97224 1.47725C1.30986 0.970818 1.87825 0.666626 2.48691 0.666626H4.99387C5.4702 0.666626 5.92335 0.87225 6.23702 1.23073C6.55069 1.58921 7.00383 1.79483 7.48017 1.79483H13.648C14.0949 1.79483 14.5235 1.97238 14.8396 2.28842C15.1556 2.60446 15.3332 3.0331 15.3332 3.48005V13.8888C15.3332 14.2719 15.181 14.6393 14.9101 14.9102C14.6392 15.1811 14.2718 15.3333 13.8887 15.3333H2.35881C1.82615 15.3333 1.32457 15.0825 1.00497 14.6564C0.785266 14.3634 0.666504 14.0072 0.666504 13.641Z" fill="#D0C0AF"/>
<path d="M0.666504 13.777V6.18023C0.666504 5.79643 0.820173 5.42859 1.09321 5.15885C1.36195 4.89334 1.72451 4.74445 2.10229 4.74445H6.55194C6.92986 4.74445 7.28482 4.56307 7.50625 4.25681C7.72767 3.95055 8.08263 3.76917 8.46056 3.76917H13.5378C14.0518 3.76917 14.5411 3.98943 14.8818 4.37417C15.1726 4.7025 15.3332 5.12593 15.3332 5.56452V13.8913C15.3332 14.1947 15.2375 14.4903 15.0598 14.7362C14.7886 15.1112 14.354 15.3333 13.8912 15.3333H2.22282C1.77175 15.3333 1.34287 15.1376 1.04727 14.7969C0.801703 14.5138 0.666504 14.1517 0.666504 13.777Z" fill="#DED4CA"/>
<path d="M6.75507 6.6131V6.61218H10.1216C10.2905 6.61218 10.4283 6.75146 10.4283 6.91583V12.4305C10.4282 12.5111 10.3961 12.5883 10.3391 12.6453C10.2821 12.7022 10.2049 12.7342 10.1243 12.7342H5.22242C5.18222 12.7339 5.14248 12.7257 5.10544 12.7101C5.06841 12.6944 5.03483 12.6716 5.0066 12.643C4.97838 12.6144 4.95607 12.5805 4.94094 12.5432C4.92582 12.506 4.91818 12.4661 4.91846 12.4259V8.44878L6.75507 6.6131ZM5.78473 8.44878H6.75507V7.47844L5.78473 8.44878ZM7.36727 7.22438V8.75488C7.36727 8.83606 7.33502 8.91392 7.27761 8.97132C7.22021 9.02873 7.14235 9.06098 7.06117 9.06098H5.53066V12.122H9.81607V7.22438H7.36727Z" fill="#B9A593" fill-opacity="0.7"/>
</svg>
