<svg width="16" height="16" viewBox="0 0 16 16" fill="none" xmlns="http://www.w3.org/2000/svg">
<path d="M0.666504 13.641V2.48703C0.666504 2.12764 0.772885 1.77629 0.97224 1.47725C1.30986 0.970818 1.87825 0.666626 2.48691 0.666626H4.99387C5.4702 0.666626 5.92335 0.87225 6.23702 1.23073C6.55069 1.58921 7.00383 1.79483 7.48017 1.79483H13.648C14.0949 1.79483 14.5235 1.97238 14.8396 2.28842C15.1556 2.60446 15.3332 3.0331 15.3332 3.48005V13.8888C15.3332 14.2719 15.181 14.6393 14.9101 14.9102C14.6392 15.1811 14.2718 15.3333 13.8887 15.3333H2.35881C1.82615 15.3333 1.32457 15.0825 1.00497 14.6564C0.785266 14.3634 0.666504 14.0072 0.666504 13.641Z" fill="#D0C0AF"/>
<path d="M0.666504 13.7768V6.18011C0.666504 5.7963 0.820173 5.42847 1.09321 5.15873C1.36195 4.89322 1.72451 4.74433 2.10229 4.74433H6.55194C6.92986 4.74433 7.28482 4.56295 7.50625 4.25669C7.72767 3.95042 8.08263 3.76904 8.46056 3.76904H13.5378C14.0518 3.76904 14.5411 3.9893 14.8818 4.37405C15.1726 4.70238 15.3332 5.1258 15.3332 5.5644V13.8912C15.3332 14.1946 15.2375 14.4902 15.0598 14.736C14.7886 15.111 14.354 15.3331 13.8912 15.3331H2.22282C1.77175 15.3331 1.34287 15.1374 1.04727 14.7967C0.801703 14.5137 0.666504 14.1516 0.666504 13.7768Z" fill="#DED4CA"/>
<g clip-path="url(#clip0)">
<g clip-path="url(#clip1)">
<path d="M7.75051 12.9329L5.58626 11.2037C5.42307 11.0733 5.40368 10.8323 5.54392 10.6775C5.67353 10.5344 5.89255 10.5182 6.04189 10.6405L7.73585 12.028V7.24326C7.73585 7.0628 7.88215 6.9165 8.06261 6.9165C8.24308 6.9165 8.38937 7.0628 8.38937 7.24326V12.028L10.0833 10.6405C10.2327 10.5182 10.4517 10.5344 10.5813 10.6775C10.7215 10.8323 10.7022 11.0733 10.539 11.2037L8.37472 12.9329C8.1922 13.0787 7.93303 13.0787 7.75051 12.9329Z" fill="#B9A593" fill-opacity="0.7" stroke="#C4B3A3" stroke-width="0.1"/>
</g>
</g>
<defs>
<clipPath id="clip0">
<rect x="4" y="6" width="7.33333" height="7.33333" fill="white"/>
</clipPath>
<clipPath id="clip1">
<rect x="4.36377" y="6.36365" width="7.39778" height="7.39778" fill="white"/>
</clipPath>
</defs>
</svg>
