<svg width="16" height="16" viewBox="0 0 16 16" fill="none" xmlns="http://www.w3.org/2000/svg">
<path d="M0.666504 13.641V2.48703C0.666504 2.12764 0.772885 1.77629 0.97224 1.47725C1.30986 0.970818 1.87825 0.666626 2.48691 0.666626H4.99387C5.4702 0.666626 5.92335 0.87225 6.23702 1.23073C6.55069 1.58921 7.00383 1.79483 7.48017 1.79483H13.648C14.0949 1.79483 14.5235 1.97238 14.8396 2.28842C15.1556 2.60446 15.3332 3.0331 15.3332 3.48005V13.8888C15.3332 14.2719 15.181 14.6393 14.9101 14.9102C14.6392 15.1811 14.2718 15.3333 13.8887 15.3333H2.35881C1.82615 15.3333 1.32457 15.0825 1.00497 14.6564C0.785266 14.3634 0.666504 14.0072 0.666504 13.641Z" fill="#D0C0AF"/>
<path d="M0.666504 13.7768V6.18011C0.666504 5.7963 0.820173 5.42847 1.09321 5.15873C1.36195 4.89322 1.72451 4.74433 2.10229 4.74433H6.55194C6.92986 4.74433 7.28482 4.56295 7.50625 4.25669C7.72767 3.95042 8.08263 3.76904 8.46056 3.76904H13.5378C14.0518 3.76904 14.5411 3.9893 14.8818 4.37405C15.1726 4.70238 15.3332 5.1258 15.3332 5.5644V13.8912C15.3332 14.1946 15.2375 14.4902 15.0598 14.736C14.7886 15.111 14.354 15.3331 13.8912 15.3331H2.22282C1.77175 15.3331 1.34287 15.1374 1.04727 14.7967C0.801703 14.5137 0.666504 14.1516 0.666504 13.7768Z" fill="#DED4CA"/>
<g clip-path="url(#clip0)">
<path d="M10.7554 7.73426L10.1432 8.34428V6.89335H7.38831V8.4184H5.85781V11.7735H10.1432V10.9326L10.7554 10.3226V12.081C10.7553 12.1612 10.7233 12.2382 10.6663 12.2949C10.6093 12.3517 10.532 12.3835 10.4515 12.3835H5.54957C5.50937 12.3833 5.46962 12.3751 5.43259 12.3595C5.39556 12.3439 5.36198 12.3212 5.33375 12.2927C5.30553 12.2642 5.28321 12.2304 5.26809 12.1933C5.25297 12.1562 5.24533 12.1165 5.24561 12.0764V8.11339L7.08313 6.28333H10.4487C10.6177 6.28333 10.7554 6.42211 10.7554 6.5859V7.73426ZM10.9936 8.35953L11.4264 8.79112L9.04554 11.1635L8.6121 11.1629L8.61272 10.7322L10.9936 8.35984V8.35953Z" fill="#B9A593" fill-opacity="0.7"/>
</g>
<defs>
<clipPath id="clip0">
<rect x="4.32715" y="5.67322" width="7.34641" height="7.32026" fill="white"/>
</clipPath>
</defs>
</svg>
