<svg width="16" height="16" viewBox="0 0 16 16" fill="none" xmlns="http://www.w3.org/2000/svg">
<path d="M9.26676 12.3943V13.5305H11.6668V14.6667H5.66677V13.5305H8.06676V12.3943H3.26197C3.18318 12.3939 3.10526 12.3787 3.03267 12.3497C2.96009 12.3207 2.89426 12.2784 2.83897 12.2252C2.78367 12.1721 2.74 12.1091 2.71045 12.04C2.6809 11.9708 2.66606 11.8968 2.66677 11.8222V4.44505C2.66677 4.12919 2.93977 3.87299 3.26197 3.87299H14.0715C14.4003 3.87299 14.6667 4.12806 14.6667 4.44505V11.8222C14.6667 12.1381 14.3937 12.3943 14.0715 12.3943H9.26676V12.3943Z" fill="#5281FA"/>
<path d="M6.09993 7.34836V8.15037H7.83326V8.95238H3.49993V8.15037H5.23326V7.34836H1.76314C1.70623 7.34805 1.64996 7.33734 1.59753 7.31687C1.54511 7.29639 1.49757 7.26653 1.45763 7.22902C1.4177 7.19151 1.38616 7.14707 1.36482 7.09826C1.34348 7.04944 1.33276 6.99721 1.33327 6.94455V1.73712C1.33327 1.51417 1.53044 1.33331 1.76314 1.33331H9.57005C9.80752 1.33331 9.99992 1.51336 9.99992 1.73712V6.94455C9.99992 7.16751 9.80275 7.34836 9.57005 7.34836H6.09993V7.34836Z" fill="#94F979"/>
</svg>
