<svg width="16" height="16" viewBox="0 0 16 16" fill="none" xmlns="http://www.w3.org/2000/svg">
<path d="M14 13.3334C14 13.5102 13.9298 13.6798 13.8047 13.8048C13.6797 13.9298 13.5101 14.0001 13.3333 14.0001H2.66667C2.48986 14.0001 2.32029 13.9298 2.19526 13.8048C2.07024 13.6798 2 13.5102 2 13.3334V6.32673C1.99993 6.22513 2.02308 6.12487 2.06768 6.03359C2.11228 5.94231 2.17715 5.86244 2.25733 5.80006L7.59067 1.65206C7.7077 1.56102 7.85173 1.5116 8 1.5116C8.14827 1.5116 8.29231 1.56102 8.40933 1.65206L13.7427 5.80006C13.8229 5.86244 13.8877 5.94231 13.9323 6.03359C13.9769 6.12487 14.0001 6.22513 14 6.32673V13.3334V13.3334Z" fill="#41F8B6"/>
</svg>
