<svg width="16" height="16" viewBox="0 0 16 16" fill="none" xmlns="http://www.w3.org/2000/svg">
<path d="M0.666504 13.6411V2.48715C0.666504 2.12776 0.772885 1.77641 0.97224 1.47737C1.30986 0.97094 1.87825 0.666748 2.48691 0.666748H4.99387C5.4702 0.666748 5.92335 0.872372 6.23702 1.23085C6.55069 1.58933 7.00383 1.79495 7.48017 1.79495H13.648C14.0949 1.79495 14.5235 1.9725 14.8396 2.28854C15.1556 2.60458 15.3332 3.03322 15.3332 3.48017V13.8889C15.3332 14.272 15.181 14.6394 14.9101 14.9103C14.6392 15.1812 14.2718 15.3334 13.8887 15.3334H2.35881C1.82615 15.3334 1.32457 15.0826 1.00497 14.6565C0.785266 14.3636 0.666504 14.0073 0.666504 13.6411Z" fill="#D0C0AF"/>
<path d="M0.666504 13.7771V6.18036C0.666504 5.79655 0.820173 5.42871 1.09321 5.15897C1.36195 4.89346 1.72451 4.74457 2.10229 4.74457H6.55194C6.92986 4.74457 7.28482 4.56319 7.50625 4.25693C7.72767 3.95067 8.08263 3.76929 8.46056 3.76929H13.5378C14.0518 3.76929 14.5411 3.98955 14.8818 4.37429C15.1726 4.70263 15.3332 5.12605 15.3332 5.56464V13.8914C15.3332 14.1948 15.2375 14.4904 15.0598 14.7363C14.7886 15.1113 14.354 15.3334 13.8912 15.3334H2.22282C1.77175 15.3334 1.34287 15.1377 1.04727 14.797C0.801703 14.5139 0.666504 14.1518 0.666504 13.7771Z" fill="#DED4CA"/>
<path d="M5.2199 10.8976H10.1001V7.53054H5.2199V10.8976ZM7.965 11.5098V12.122H9.18504V12.7342H6.13493V12.122H7.35497V11.5098H4.91245C4.87239 11.5096 4.83278 11.5014 4.79588 11.4858C4.75898 11.4702 4.72552 11.4474 4.69741 11.4187C4.6693 11.3901 4.6471 11.3562 4.63208 11.3189C4.61706 11.2817 4.60951 11.2418 4.60988 11.2016V7.22658C4.60988 7.05639 4.74866 6.91833 4.91245 6.91833H10.4075C10.5747 6.91833 10.7101 7.05577 10.7101 7.22658V11.2016C10.7101 11.3718 10.5713 11.5098 10.4075 11.5098H7.965V11.5098Z" fill="#B9A593" fill-opacity="0.7"/>
</svg>
