<svg width="16" height="17" viewBox="0 0 16 17" fill="none" xmlns="http://www.w3.org/2000/svg">
<path d="M4.66659 4.27275V2.27275C4.66659 2.09593 4.73682 1.92637 4.86185 1.80134C4.98687 1.67632 5.15644 1.60608 5.33325 1.60608H10.6666C10.8434 1.60608 11.013 1.67632 11.138 1.80134C11.263 1.92637 11.3333 2.09593 11.3333 2.27275V4.27275H14.6666V5.60608H13.3333V14.2727C13.3333 14.4496 13.263 14.6191 13.138 14.7442C13.013 14.8692 12.8434 14.9394 12.6666 14.9394H3.33325C3.15644 14.9394 2.98687 14.8692 2.86185 14.7442C2.73682 14.6191 2.66659 14.4496 2.66659 14.2727V5.60608H1.33325V4.27275H4.66659ZM5.99992 2.93941V4.27275H9.99992V2.93941H5.99992Z" fill="#DF555D"/>
</svg>
